<?xml version="1.0" encoding="UTF-8"?>
<svg version="1.1" xmlns="http://www.w3.org/2000/svg" width="512" height="512">
<path d="M0 0 C30.38948264 19.57827656 47.69992064 54.30583642 58.61328125 87.68359375 C59.33878174 87.56242187 60.06428223 87.44125 60.81176758 87.31640625 C98.36646866 81.23040872 138.92480936 78.61987874 172.140625 100.3359375 C185.13210778 109.77419422 192.25011597 123.56431052 195.14453125 139.15625 C199.69602296 173.40622513 180.70002519 205.61453793 160.80078125 231.8359375 C157.75621985 235.79930404 154.70013895 239.75306111 151.61328125 243.68359375 C152.98261536 246.73774581 154.55223719 248.83959352 156.86328125 251.24609375 C182.20245978 279.34452947 200.85635322 313.78365652 199.74511719 352.20361328 C198.91402577 367.83736619 190.65469244 380.26231661 179.61328125 390.68359375 C156.13753882 410.56762165 122.20615102 412.19203625 92.96191406 410.00341797 C83.59878627 409.10915598 74.30715743 407.59786892 65.03564453 406.03491211 C62.52640937 405.61182895 62.52640937 405.61182895 59.61328125 405.68359375 C59.33766357 406.42182373 59.0620459 407.16005371 58.77807617 407.9206543 C48.4234904 435.45817462 36.67552263 461.59055962 15.61328125 482.68359375 C14.8140625 483.49441406 14.01484375 484.30523437 13.19140625 485.140625 C-0.54520317 498.31609842 -16.38269747 504.33181656 -35.28637695 504.15673828 C-55.99995427 503.49758084 -71.58294421 492.17813443 -85.60546875 477.76171875 C-104.30651995 457.46295869 -114.93830631 431.2214753 -124.38671875 405.68359375 C-125.58941406 405.87695312 -126.79210937 406.0703125 -128.03125 406.26953125 C-164.5962839 411.94203302 -206.77563848 416.05281574 -239.38671875 394.68359375 C-252.44560623 384.53946529 -262.0685008 371.32126562 -264.38671875 354.68359375 C-267.66244796 313.94496142 -245.58544074 280.44148633 -220.76196289 250.27075195 C-219.37005696 248.66436451 -217.9076322 247.16754153 -216.38671875 245.68359375 C-217.80934206 241.40026053 -219.90863773 238.67307136 -222.88671875 235.30859375 C-244.25840694 210.45179662 -262.63051688 176.2302149 -260.38671875 142.68359375 C-258.48313823 126.09794174 -250.92165273 111.558077 -237.94921875 101.18359375 C-218.42937569 87.03773217 -195.23572677 83.26509813 -171.57421875 83.37109375 C-170.81468903 83.37158722 -170.0551593 83.37208069 -169.27261353 83.37258911 C-155.81366768 83.39923001 -142.67412044 84.46753952 -129.38671875 86.68359375 C-128.18660156 86.88082031 -126.98648438 87.07804687 -125.75 87.28125 C-124.97011719 87.41402344 -124.19023437 87.54679687 -123.38671875 87.68359375 C-123.19674316 87.15741455 -123.00676758 86.63123535 -122.81103516 86.08911133 C-113.79079375 61.30084556 -103.21608955 37.48725604 -85.38671875 17.68359375 C-84.55785156 16.760625 -83.72898438 15.83765625 -82.875 14.88671875 C-60.94649028 -8.29027546 -28.50619158 -16.5426669 0 0 Z M-68.07421875 45.37109375 C-76.34792575 56.95129125 -82.65562196 69.6960695 -88.38671875 82.68359375 C-88.83402344 83.68003906 -89.28132812 84.67648438 -89.7421875 85.703125 C-91.79681707 90.04882785 -91.79681707 90.04882785 -92.18334961 94.71362305 C-91.57374243 96.83609867 -91.57374243 96.83609867 -89.57446289 97.62158203 C-88.38518188 97.93458252 -88.38518188 97.93458252 -87.171875 98.25390625 C-86.27017578 98.5055957 -85.36847656 98.75728516 -84.43945312 99.01660156 C-83.45267578 99.27795898 -82.46589844 99.53931641 -81.44921875 99.80859375 C-72.2387901 102.41714172 -63.30574397 105.45594263 -54.38671875 108.93359375 C-53.29625244 109.35785645 -52.20578613 109.78211914 -51.08227539 110.21923828 C-46.84311767 111.88345371 -42.63806001 113.55273602 -38.51171875 115.48046875 C-33.32683917 117.47664739 -29.31508628 116.9693093 -24.28125 114.8125 C-23.31026367 114.40708984 -22.33927734 114.00167969 -21.33886719 113.58398438 C-20.3027832 113.14248047 -19.26669922 112.70097656 -18.19921875 112.24609375 C-5.67178684 107.05589096 7.05463317 102.71259859 19.96386719 98.578125 C22.55647459 97.70277359 25.08315895 96.72453215 27.61328125 95.68359375 C25.05668597 77.92945986 12.75282675 57.3871739 1.61328125 43.68359375 C0.91589844 42.8225 0.21851563 41.96140625 -0.5 41.07421875 C-7.68519755 32.6510742 -17.12183873 23.68822202 -28.50390625 22.3046875 C-45.92656826 21.40877381 -57.91349595 32.4055881 -68.07421875 45.37109375 Z M-222.98828125 129.75390625 C-228.43243545 137.26623076 -230.20309761 145.57694509 -229.38671875 154.68359375 C-224.58947679 180.78059001 -210.11737685 201.70139432 -193.38671875 221.68359375 C-189.82588776 218.64205061 -186.27582651 215.5914993 -182.76171875 212.49609375 C-181.30424841 211.22427077 -179.84581658 209.95354926 -178.38671875 208.68359375 C-177.49726563 207.90371094 -176.6078125 207.12382812 -175.69140625 206.3203125 C-168.12457339 199.76263894 -160.23599826 193.74090764 -152.10253906 187.8984375 C-151.27592773 187.29386719 -150.44931641 186.68929687 -149.59765625 186.06640625 C-148.85821777 185.53418457 -148.1187793 185.00196289 -147.35693359 184.45361328 C-142.97114179 180.51346575 -141.9411921 176.50403193 -141.17578125 170.78515625 C-141.03584496 169.78942345 -141.03584496 169.78942345 -140.89308167 168.77357483 C-140.69379141 167.35408711 -140.4990329 165.93395695 -140.30844116 164.51327515 C-139.80787737 160.79402903 -139.27087343 157.08025503 -138.7265625 153.3671875 C-138.61808487 152.62710953 -138.50960724 151.88703156 -138.39784241 151.12452698 C-137.25576869 143.5171599 -135.6655363 136.02786378 -133.91064453 128.53955078 C-133.71067871 127.68345215 -133.51071289 126.82735352 -133.3046875 125.9453125 C-133.12703857 125.21272217 -132.94938965 124.48013184 -132.76635742 123.7253418 C-132.26484884 121.37428474 -132.26484884 121.37428474 -132.38671875 117.68359375 C-159.05279459 112.89225606 -202.4740237 107.23825772 -222.98828125 129.75390625 Z M67.61328125 117.68359375 C68.33810461 124.65780876 69.70500827 131.46751037 71.08163452 138.33917236 C73.2750551 149.29919705 75.33387488 160.23409439 76.58740234 171.3503418 C77.38807289 177.86785443 79.00372864 181.53523713 84.23828125 185.69921875 C85.69068962 186.78531247 87.14934958 187.8630828 88.61328125 188.93359375 C90.15724577 190.08851374 91.70021459 191.24476603 93.2421875 192.40234375 C94.36778076 193.24345703 94.36778076 193.24345703 95.51611328 194.1015625 C104.42316837 200.82073793 112.71894262 208.24035246 120.91015625 215.8046875 C121.6165625 216.44535156 122.32296875 217.08601563 123.05078125 217.74609375 C123.66824219 218.31457031 124.28570312 218.88304687 124.921875 219.46875 C126.67230704 220.97527648 126.67230704 220.97527648 129.61328125 220.68359375 C131.59746112 218.6075537 133.35203989 216.56396194 135.11328125 214.30859375 C135.64010498 213.64029541 136.16692871 212.97199707 136.7097168 212.28344727 C150.92524821 193.84552284 167.05266442 168.90318382 164.61328125 144.68359375 C162.45158912 135.32060193 157.85547148 128.37392177 149.92578125 122.93359375 C136.68501005 115.34187744 121.69918473 114.30282976 106.80078125 114.37109375 C105.72318039 114.37133545 105.72318039 114.37133545 104.62380981 114.37158203 C92.09990232 114.39105907 79.95358816 115.46629796 67.61328125 117.68359375 Z M-102.38671875 125.68359375 C-103.24515784 129.61544265 -104.09954351 133.54814822 -104.95019531 137.48168945 C-105.24009932 138.81949593 -105.53110659 140.15706383 -105.82324219 141.49438477 C-106.24314234 143.41749888 -106.65873755 145.34155135 -107.07421875 147.265625 C-107.32558594 148.42296143 -107.57695312 149.58029785 -107.8359375 150.77270508 C-108.47967641 153.68112026 -108.47967641 153.68112026 -108.38671875 156.68359375 C-104.48682035 155.23651794 -101.01130434 153.40983734 -97.421875 151.3125 C-96.29201172 150.65572266 -95.16214844 149.99894531 -93.99804688 149.32226562 C-92.8149593 148.63045602 -91.63201772 147.93839667 -90.44921875 147.24609375 C-88.12893326 145.89091945 -85.80697656 144.53871151 -83.484375 143.1875 C-82.45836182 142.58752197 -81.43234863 141.98754395 -80.37524414 141.36938477 C-77.42339825 139.70428421 -74.43066709 138.17250929 -71.38671875 136.68359375 C-71.38671875 136.02359375 -71.38671875 135.36359375 -71.38671875 134.68359375 C-75.31760713 133.39624968 -79.25032149 132.11466533 -83.18481445 130.83837891 C-84.52289376 130.40343421 -85.86046449 129.96692166 -87.19750977 129.52880859 C-89.11990944 128.89919236 -91.04430659 128.27568532 -92.96875 127.65234375 C-94.12608643 127.27529297 -95.28342285 126.89824219 -96.47583008 126.50976562 C-99.36341041 125.54707526 -99.36341041 125.54707526 -102.38671875 125.68359375 Z M28.1953125 127.65234375 C26.31489258 128.26142578 26.31489258 128.26142578 24.39648438 128.8828125 C23.07288577 129.31631193 21.74931846 129.74990691 20.42578125 130.18359375 C19.09062501 130.6175883 17.75533995 131.05118679 16.41992188 131.484375 C13.14975147 132.54688524 9.88095916 133.61344742 6.61328125 134.68359375 C6.61328125 135.34359375 6.61328125 136.00359375 6.61328125 136.68359375 C8.14082031 137.46669922 8.14082031 137.46669922 9.69921875 138.265625 C18.66252065 142.91140178 27.35893031 147.83738319 35.89794922 153.2277832 C36.61740723 153.67855225 37.33686523 154.12932129 38.078125 154.59375 C38.71355225 154.99730713 39.34897949 155.40086426 40.00366211 155.81665039 C41.60204766 156.84165888 41.60204766 156.84165888 43.61328125 156.68359375 C42.34218593 146.13015763 40.18222487 135.98430945 37.61328125 125.68359375 C34.09079539 125.68359375 31.54741297 126.56025672 28.1953125 127.65234375 Z M-42.88671875 155.74609375 C-43.79671631 156.20000488 -44.70671387 156.65391602 -45.64428711 157.12158203 C-56.43993787 162.58337687 -66.94808762 168.57330871 -77.38671875 174.68359375 C-78.28374512 175.20775879 -79.18077148 175.73192383 -80.10498047 176.27197266 C-98.23115509 186.13033607 -98.23115509 186.13033607 -114.38671875 198.68359375 C-114.70445148 201.10928099 -114.90273452 203.43792121 -115.01953125 205.875 C-115.0612294 206.60341599 -115.10292755 207.33183197 -115.14588928 208.08232117 C-115.27862647 210.46980638 -115.39617041 212.85771884 -115.51171875 215.24609375 C-115.5537442 216.0611438 -115.59576965 216.87619385 -115.6390686 217.71594238 C-116.72639203 238.85577426 -116.84032553 259.97427216 -115.53808594 281.11254883 C-115.43839225 282.80589436 -115.37559537 284.50187708 -115.35253906 286.19799805 C-115.1620918 290.60413139 -114.94375651 292.14020101 -111.67578125 295.328125 C-110.47304125 296.08135441 -109.24974098 296.80237982 -108.01171875 297.49609375 C-107.34398437 297.9036792 -106.67625 298.31126465 -105.98828125 298.73120117 C-104.54623712 299.61077519 -103.09702219 300.47867876 -101.64160156 301.3359375 C-99.38409211 302.68516359 -97.17655211 304.09242964 -94.97265625 305.52734375 C-82.7539429 313.46463469 -70.15449378 320.67196936 -57.38671875 327.68359375 C-56.34177246 328.26334961 -55.29682617 328.84310547 -54.22021484 329.44042969 C-51.09824624 331.16569048 -47.96387324 332.86577077 -44.82421875 334.55859375 C-43.38804199 335.35426758 -43.38804199 335.35426758 -41.92285156 336.16601562 C-41.02276367 336.64361328 -40.12267578 337.12121094 -39.1953125 337.61328125 C-38.40954834 338.03851074 -37.62378418 338.46374023 -36.81420898 338.90185547 C-32.67193222 340.23581606 -29.48728271 339.15051126 -25.57617188 337.49121094 C-24.61646484 336.99266602 -23.65675781 336.49412109 -22.66796875 335.98046875 C-21.58177246 335.41884033 -20.49557617 334.85721191 -19.37646484 334.27856445 C-18.22484863 333.66972412 -17.07323242 333.06088379 -15.88671875 332.43359375 C-14.99499969 331.96607193 -14.99499969 331.96607193 -14.08526611 331.48910522 C2.36122562 322.86378633 18.34089417 313.45405759 33.80859375 303.171875 C36.26219337 301.54339618 38.74022124 300.00692676 41.29296875 298.5390625 C42.38867188 297.88550781 43.484375 297.23195313 44.61328125 296.55859375 C45.56203125 296.01976562 46.51078125 295.4809375 47.48828125 294.92578125 C50.71870874 291.51720518 50.4661267 288.23406531 50.61328125 283.68359375 C50.6908667 282.4011377 50.6908667 282.4011377 50.77001953 281.09277344 C51.66630289 265.96833435 51.90583441 250.8282294 51.61328125 235.68359375 C51.59431853 234.16699723 51.57579097 232.65039524 51.55761719 231.13378906 C51.50128509 226.96383208 51.39042091 222.79766733 51.25015259 218.62973022 C51.20097611 216.97094723 51.16652612 215.31165551 51.14755249 213.6522522 C51.26454253 204.52124483 51.26454253 204.52124483 47.93579102 196.3137207 C45.60109959 194.43218282 43.26561239 193.07979695 40.61328125 191.68359375 C38.67767708 190.43682265 36.74692241 189.18250021 34.8203125 187.921875 C32.69328538 186.60600651 30.56157038 185.29769241 28.42578125 183.99609375 C27.86180634 183.65076599 27.29783142 183.30543823 26.71676636 182.949646 C16.40486964 176.641988 5.90698414 170.72241613 -4.77734375 165.06835938 C-7.43620122 163.65733397 -10.08388253 162.22685967 -12.73046875 160.79296875 C-14.4280191 159.88082835 -16.12592033 158.96934057 -17.82421875 158.05859375 C-18.9687854 157.43718506 -18.9687854 157.43718506 -20.13647461 156.80322266 C-29.10641205 152.04399146 -33.75638417 151.00304042 -42.88671875 155.74609375 Z M-153.82421875 228.12109375 C-154.45150879 228.6615332 -155.07879883 229.20197266 -155.72509766 229.75878906 C-161.01215986 234.32752239 -166.22485783 238.97369301 -171.38671875 243.68359375 C-170.08037554 246.59801598 -168.72908338 248.55670437 -166.375 250.70703125 C-165.78138672 251.25359375 -165.18777344 251.80015625 -164.57617188 252.36328125 C-163.95677734 252.92273438 -163.33738281 253.4821875 -162.69921875 254.05859375 C-161.79913086 254.88617188 -161.79913086 254.88617188 -160.88085938 255.73046875 C-159.06150307 257.39544358 -157.22756524 259.04242736 -155.38671875 260.68359375 C-154.74395996 261.26141602 -154.10120117 261.83923828 -153.43896484 262.43457031 C-152.81715332 262.98338867 -152.1953418 263.53220703 -151.5546875 264.09765625 C-150.71393677 264.84329834 -150.71393677 264.84329834 -149.85620117 265.60400391 C-148.42199368 266.88094901 -148.42199368 266.88094901 -146.38671875 266.68359375 C-146.38671875 252.16359375 -146.38671875 237.64359375 -146.38671875 222.68359375 C-148.87218448 222.68359375 -151.91745875 226.46972553 -153.82421875 228.12109375 Z M81.61328125 222.68359375 C81.61328125 237.20359375 81.61328125 251.72359375 81.61328125 266.68359375 C85.52776835 264.7263502 88.23791441 262.45704603 91.36328125 259.49609375 C95.5492884 255.56898176 99.78803355 251.79268288 104.28515625 248.21875 C106.04946188 246.51774213 106.04946188 246.51774213 105.61328125 242.68359375 C103.70765263 240.59277865 101.85667717 238.78380851 99.73828125 236.93359375 C99.15272461 236.40862305 98.56716797 235.88365234 97.96386719 235.34277344 C90.38740527 227.34324266 90.38740527 227.34324266 81.61328125 222.68359375 Z M-194.38671875 267.68359375 C-213.90906796 289.78074099 -234.93264789 317.2057404 -233.8046875 348.1484375 C-232.7680917 356.91590669 -228.42167451 363.38546078 -221.78515625 369.05078125 C-204.56592526 381.26353979 -179.55358626 380.53948679 -159.63671875 378.87109375 C-158.76829346 378.80116211 -157.89986816 378.73123047 -157.00512695 378.65917969 C-148.69343969 377.89478159 -140.56562512 376.30252324 -132.38671875 374.68359375 C-132.67337402 373.27557495 -132.67337402 373.27557495 -132.96582031 371.83911133 C-133.70157372 368.21186591 -134.42641767 364.58250957 -135.14755249 360.95233154 C-135.47342323 359.31604529 -135.80140325 357.68017768 -136.13150024 356.04473877 C-137.8606321 347.45230806 -139.49192771 338.91900242 -140.3203125 330.1875 C-140.87949847 316.20853728 -140.87949847 316.20853728 -147.43652344 304.5534668 C-149.95006834 302.66674982 -152.62406677 301.17302351 -155.38671875 299.68359375 C-157.06058922 298.40704322 -158.70812476 297.09504291 -160.32421875 295.74609375 C-161.13117188 295.10285156 -161.938125 294.45960938 -162.76953125 293.796875 C-171.18929986 286.99822602 -179.34293485 279.96353592 -187.16137695 272.47949219 C-189.56787047 270.20641823 -191.20348349 268.74467217 -194.38671875 267.68359375 Z M125.73046875 269.40625 C124.99054688 270.17839844 124.250625 270.95054687 123.48828125 271.74609375 C119.36100769 275.95853327 115.1062658 279.86879555 110.61328125 283.68359375 C109.64519531 284.51761719 108.67710937 285.35164063 107.6796875 286.2109375 C101.13775048 291.82372984 94.46192873 297.19624711 87.5859375 302.39453125 C86.60496094 303.14992188 85.62398438 303.9053125 84.61328125 304.68359375 C83.59226318 305.40957764 82.57124512 306.13556152 81.51928711 306.88354492 C78.09526617 309.7659918 77.64408185 312.31172546 77.14453125 316.7734375 C77.01506355 317.80745697 77.01506355 317.80745697 76.88298035 318.86236572 C76.6995017 320.34362897 76.52744541 321.82634403 76.36581421 323.31015015 C75.93654913 327.23837954 75.42207673 331.15552628 74.9140625 335.07421875 C74.81261429 335.87180099 74.71116608 336.66938324 74.60664368 337.49113464 C73.53730406 345.69278777 71.98023158 353.7754318 70.30078125 361.87109375 C70.16559082 362.52705536 70.03040039 363.18301697 69.89111328 363.8588562 C69.14543063 367.4700435 68.38641165 371.07818761 67.61328125 374.68359375 C94.80916199 380.52798073 127.99663534 384.7106039 153.625 371.08203125 C161.07359905 366.20536999 166.26100042 360.35433294 168.61328125 351.68359375 C171.31606123 326.27746195 157.72673439 303.09007096 142.61328125 283.68359375 C141.87851562 282.73871094 141.14375 281.79382813 140.38671875 280.8203125 C138.48737104 278.41945163 136.55764428 276.04800848 134.61328125 273.68359375 C134.10667969 273.04164063 133.60007812 272.3996875 133.078125 271.73828125 C131.96950475 270.34846578 130.7987191 269.00849487 129.61328125 267.68359375 C127.43388341 267.45858335 127.43388341 267.45858335 125.73046875 269.40625 Z M-109.38671875 333.68359375 C-108.06116352 344.53221678 -105.8700777 355.05095979 -103.38671875 365.68359375 C-99.52820572 367.15085795 -96.98495431 366.1707547 -93.16015625 364.8828125 C-91.96390625 364.48255859 -90.76765625 364.08230469 -89.53515625 363.66992188 C-88.28992188 363.24130859 -87.0446875 362.81269531 -85.76171875 362.37109375 C-84.4963699 361.94904098 -83.23074732 361.5278079 -81.96484375 361.10742188 C-75.66029231 359.27781332 -75.66029231 359.27781332 -70.38671875 355.68359375 C-71.41667969 355.07773437 -72.44664062 354.471875 -73.5078125 353.84765625 C-74.18811523 353.44740234 -74.86841797 353.04714844 -75.56933594 352.63476562 C-77.08664701 351.74238432 -78.60423017 350.8504655 -80.12207031 349.95898438 C-84.12947793 347.60440536 -88.13217444 345.24251647 -92.125 342.86328125 C-92.88176025 342.41388184 -93.63852051 341.96448242 -94.41821289 341.50146484 C-95.86831287 340.64005407 -97.31679269 339.77590851 -98.76342773 338.90869141 C-102.22738284 336.85526184 -105.57621106 335.04237944 -109.38671875 333.68359375 Z M38.640625 335.95703125 C37.42584473 336.69324707 37.42584473 336.69324707 36.18652344 337.44433594 C35.31672852 337.97704102 34.44693359 338.50974609 33.55078125 339.05859375 C31.74258597 340.15560499 29.93398449 341.25194693 28.125 342.34765625 C27.20895996 342.90356445 26.29291992 343.45947266 25.34912109 344.03222656 C21.20666494 346.53263469 17.03733575 348.98640882 12.86328125 351.43359375 C12.13101318 351.86333496 11.39874512 352.29307617 10.64428711 352.73583984 C8.96775057 353.71921839 7.29059418 354.70154006 5.61328125 355.68359375 C9.17446577 359.24477827 14.37039447 360.17060966 19.08007812 361.73461914 C20.97801982 362.36767108 22.86991476 363.01875746 24.76171875 363.66992188 C25.95796875 364.07017578 27.15421875 364.47042969 28.38671875 364.8828125 C29.48419434 365.25237061 30.58166992 365.62192871 31.71240234 366.00268555 C34.55821227 366.6706677 35.92370823 366.70634893 38.61328125 365.68359375 C39.47159391 361.60927183 40.32598399 357.53415306 41.17675781 353.45825195 C41.46669725 352.07195873 41.75770504 350.68588849 42.04980469 349.30004883 C42.46961424 347.30738138 42.885568 345.31394208 43.30078125 343.3203125 C43.67783203 341.52146606 43.67783203 341.52146606 44.0625 339.6862793 C44.70349096 336.70059594 44.70349096 336.70059594 44.61328125 333.68359375 C42.00287976 333.68359375 40.86708183 334.59776277 38.640625 335.95703125 Z M-39.55859375 376.703125 C-40.60104248 377.14358154 -41.64349121 377.58403809 -42.7175293 378.0378418 C-43.84586182 378.51906494 -44.97419434 379.00028809 -46.13671875 379.49609375 C-56.98572551 384.03316889 -67.93838096 388.0933669 -79.07421875 391.87109375 C-79.79210571 392.11469635 -80.50999268 392.35829895 -81.24963379 392.60928345 C-85.29177351 393.97810896 -89.33754056 395.33570637 -93.38671875 396.68359375 C-92.82940356 400.67193732 -91.98370059 404.08140489 -90.3828125 407.7734375 C-89.97627441 408.71501709 -89.56973633 409.65659668 -89.15087891 410.62670898 C-88.71308105 411.61485596 -88.2752832 412.60300293 -87.82421875 413.62109375 C-87.37095215 414.64726807 -86.91768555 415.67344238 -86.45068359 416.73071289 C-78.12480142 435.37828755 -67.78478879 456.4069714 -49.76171875 467.49609375 C-48.86195313 468.05941406 -47.9621875 468.62273437 -47.03515625 469.203125 C-39.87866102 473.20358472 -33.50912932 473.62046439 -25.38671875 472.68359375 C-6.76955345 467.04551526 5.51758283 448.51915252 14.29980469 432.3359375 C24.11214149 415.3257019 24.11214149 415.3257019 28.61328125 396.68359375 C27.78530029 396.40797607 26.95731934 396.1323584 26.10424805 395.84838867 C22.16664402 394.5316921 18.23249828 393.20525434 14.30078125 391.87109375 C13.58531128 391.62837738 12.86984131 391.38566101 12.13269043 391.1355896 C0.54770673 387.18863518 -10.79775581 382.83933728 -22.0559082 378.0378418 C-23.6195813 377.37715698 -23.6195813 377.37715698 -25.21484375 376.703125 C-26.12137695 376.31229736 -27.02791016 375.92146973 -27.96191406 375.51879883 C-32.43404159 373.97840935 -35.40809137 374.91374649 -39.55859375 376.703125 Z " fill="#000000" transform="translate(288.38671875,8.31640625)"/>
<path d="M0 0 C9.66722876 7.45182217 15.27952294 19.09615875 17 31 C18.33376776 45.42723431 14.21790519 57.6362311 5.41015625 69.0625 C-3.00768564 78.28302119 -14.75560101 83.14537457 -27 84.27734375 C-40.87188521 84.72890251 -53.50105815 80.22629401 -63.8125 70.8125 C-73.22629401 60.50105815 -77.72890251 47.87188521 -77.27734375 34 C-76.14537457 21.75560101 -71.28302119 10.00768564 -62.0625 1.58984375 C-42.77617789 -13.27669621 -19.9681721 -13.90225936 0 0 Z " fill="#000000" transform="translate(286,219)"/>
</svg>
