<?xml version="1.0" encoding="UTF-8"?>
<svg version="1.1" xmlns="http://www.w3.org/2000/svg" width="512" height="512">
<path d="M0 0 C147.84 0 295.68 0 448 0 C448 13.78345149 448 13.78345149 447.39371586 20.30466652 C447.29539539 21.43273584 447.29539539 21.43273584 447.19508865 22.58359444 C446.97708867 25.07016529 446.75163753 27.55599957 446.52613831 30.04190063 C446.36553327 31.8558779 446.20539314 33.66989638 446.04567474 35.48395193 C445.60768776 40.44325489 445.16314246 45.40195096 444.71748245 50.36056948 C444.23713838 55.71813229 443.7629325 61.07623885 443.28796387 66.4342804 C442.35748861 76.92003027 441.42143513 87.40527503 440.48356313 97.89036562 C439.39128894 110.10445063 438.30492182 122.31905887 437.21888613 134.53369991 C435.28088576 156.32850446 433.33808482 178.12287831 431.39233398 199.91699219 C429.50481129 221.05899978 427.61981232 242.20123004 425.73803711 263.34375 C425.62210969 264.64623434 425.50618226 265.94871869 425.38674188 267.29067226 C424.92075364 272.52631112 424.45477982 277.76195128 423.98882595 282.9975932 C420.41758953 323.1248318 416.84411361 363.2518727 413.26276398 403.37821007 C412.88722414 407.58599868 412.51192443 411.7938086 412.13684654 416.00163841 C411.70489284 420.84736667 411.27242487 425.69304875 410.8395431 430.53869419 C410.68321912 432.28949489 410.52707183 434.04031139 410.37112135 435.7911454 C409.62214669 444.19847099 408.86366784 452.60349074 408 461 C402.51563023 463.13067066 397.04913988 464.92936809 391.37768555 466.48583984 C390.1353256 466.83151741 390.1353256 466.83151741 388.86786747 467.18417835 C386.12507207 467.94646078 383.3808999 468.70366035 380.63671875 469.4609375 C378.67635769 470.0048917 376.7160938 470.54919619 374.75592041 471.09382629 C369.49153653 472.55561097 364.22598425 474.01314105 358.96012497 475.46960068 C350.17253426 477.90076183 341.3865158 480.33760448 332.60048103 482.77438164 C330.37164826 483.39249146 328.14277 484.01043727 325.91384697 484.62822151 C311.55350049 488.60902336 297.20340621 492.62370774 282.86766624 496.69224548 C280.20930503 497.44641249 277.55056649 498.19923282 274.89167786 498.95153809 C274.03904956 499.19281055 273.18642126 499.43408302 272.30795574 499.68266678 C270.62549671 500.15875353 268.94302783 500.63480546 267.26054859 501.11082077 C262.42694807 502.47935912 257.59603054 503.85692323 252.76680946 505.24083042 C249.79668737 506.08966994 246.82420325 506.92998473 243.85100555 507.76798058 C242.49388784 508.15246497 241.13779241 508.54058082 239.78287506 508.93274879 C237.9425636 509.46504488 236.09818244 509.98320934 234.25366211 510.50073242 C232.72061684 510.93817024 232.72061684 510.93817024 231.15660095 511.38444519 C224.24626753 512.73199879 218.55526524 511.92554207 211.91943359 509.99414062 C211.14763638 509.7786258 210.37583916 509.56311098 209.58065414 509.34106541 C207.01704762 508.62257743 204.45788221 507.88941278 201.8984375 507.15625 C200.05835893 506.63752724 198.21800948 506.11976453 196.37741089 505.60289001 C191.406591 504.20434281 186.4393872 502.79333401 181.47273254 501.38007736 C176.28957398 499.90752269 171.10321611 498.4463341 165.91699219 496.98461914 C159.48330959 495.17072255 153.04987686 493.3559682 146.61779785 491.53639221 C131.66954566 487.30856284 116.7100495 483.12268324 101.7421875 478.96484375 C99.7267886 478.40466089 97.71139748 477.84445 95.6960144 477.28421021 C87.9735264 475.13785101 80.25088182 472.99206377 72.52703857 470.85058594 C68.05698933 469.61105244 63.58783545 468.36834047 59.11932755 467.12326241 C57.48037413 466.66724367 55.84108392 466.21243349 54.20144272 465.75889397 C51.97751488 465.14364175 49.75474545 464.52437187 47.53222656 463.90405273 C46.28717346 463.55833725 45.04212036 463.21262177 43.75933838 462.85643005 C41 462 41 462 40 461 C39.72026095 458.89352156 39.50587162 456.77837229 39.31520081 454.66197205 C39.25269294 453.98176953 39.19018507 453.30156701 39.12578303 452.60075229 C38.9122514 450.26407636 38.70533349 447.9268589 38.49829102 445.58959961 C38.34293562 443.87296115 38.1872038 442.15635672 38.03113365 440.4397831 C37.59068466 435.58098778 37.15623863 430.72167022 36.722718 425.86225247 C36.34070377 421.58815121 35.9553969 417.31434917 35.5701316 413.04053992 C34.24077521 398.29197693 32.92290563 383.54239291 31.60644848 368.7926745 C31.1185779 363.32698623 30.63016373 357.86134669 30.14150238 352.39572906 C26.1243656 307.46420483 22.12242852 262.53134451 18.13599205 217.59708595 C17.78281097 213.61623667 17.42961782 209.63538846 17.07641602 205.65454102 C16.98877631 204.66674134 16.90113661 203.67894167 16.81084116 202.66120867 C15.36966216 186.41866883 13.92405333 170.17652613 12.47681277 153.93452538 C10.97193075 137.04477692 9.47101944 120.15467925 7.97398859 103.26423305 C7.14064336 93.86304109 6.30559191 84.46200787 5.46598625 75.06137276 C4.7577482 67.13152347 4.05308685 59.20136672 3.3531177 51.27078307 C2.9972522 47.24010918 2.63970802 43.20960348 2.2775135 39.17949295 C1.94578302 35.48791395 1.61900094 31.79593022 1.29601628 28.10357606 C1.12400018 26.15141011 0.9468243 24.19970088 0.76940769 22.24801832 C0.66697272 21.06599048 0.56453774 19.88396263 0.45899868 18.66611576 C0.36970669 17.66112067 0.2804147 16.65612558 0.1884169 15.6206761 C-0.08219886 10.42044185 0 5.2072708 0 0 Z M83 95 C83 112.36215552 84.73298562 129.68413678 86 147 C158.27 147 230.54 147 305 147 C303.68 163.83 302.36 180.66 301 198 C301 200.31 301 202.62 301 205 C299.91804352 204.99476318 298.83608704 204.98952637 297.72134399 204.98413086 C268.92226749 204.85991283 240.13226469 205.07393868 211.3359375 205.4375 C210.03443866 205.45393177 210.03443866 205.45393177 208.70664692 205.4706955 C197.9986782 205.60641932 187.29078423 205.74760225 176.58291268 205.89076424 C167.33176172 206.01431607 158.08056203 206.13402468 148.82935786 206.25351524 C129.88618417 206.49827019 110.94307226 206.7475217 92 207 C92.15633288 209.22792552 92.31347169 211.45579449 92.47094727 213.68363953 C92.55836685 214.92429011 92.64578644 216.1649407 92.7358551 217.44318676 C93.0633054 221.85243171 93.47676391 226.24753057 93.9375 230.64453125 C94.02249756 231.46580002 94.10749512 232.28706879 94.19506836 233.13322449 C94.37201164 234.83446544 94.55014889 236.53558264 94.72949219 238.23657227 C95.00427317 240.85319153 95.27175847 243.47049816 95.5390625 246.08789062 C95.71310277 247.75265011 95.88756547 249.4173655 96.0625 251.08203125 C96.14169678 251.86415482 96.22089355 252.64627838 96.30249023 253.45210266 C96.39703965 257.02890253 96.39703965 257.02890253 98 260 C100.5545717 260.0977625 103.08208461 260.12995146 105.63710022 260.12025452 C106.44649801 260.12110894 107.2558958 260.12196337 108.0898208 260.12284368 C110.82300472 260.12450096 113.55612831 260.11897309 116.28930664 260.11352539 C118.24016824 260.11324355 120.19102994 260.1134012 122.14189148 260.1139679 C127.45572159 260.11425598 132.76952934 260.10835754 138.08335423 260.10139394 C143.63006685 260.09516216 149.17677991 260.09455674 154.72349548 260.09336853 C165.23492625 260.09025469 175.74634666 260.0820406 186.25777286 260.07201904 C198.22129135 260.06085953 210.18481032 260.05534786 222.14833272 260.05032361 C246.76556089 260.03985803 271.38277987 260.02225758 296 260 C295.84966309 261.30759277 295.84966309 261.30759277 295.69628906 262.64160156 C294.74995511 270.87964245 293.80796732 279.1181664 292.87078857 287.35725403 C292.38889074 291.59244948 291.90534805 295.82744328 291.41796875 300.06201172 C290.94718687 304.15291819 290.48082709 308.2443073 290.01745605 312.33605957 C289.84040882 313.89263685 289.6618017 315.44903756 289.48156738 317.00524902 C289.22829966 319.19445038 288.98071885 321.38422892 288.734375 323.57421875 C288.59225586 324.81776123 288.45013672 326.06130371 288.30371094 327.3425293 C287.97837856 331.26037843 287.94899704 335.07087295 288 339 C287.41815948 339.10617142 286.83631897 339.21234283 286.23684692 339.32173157 C279.35817463 340.63087368 272.66626493 342.39374729 265.9296875 344.29296875 C263.62909506 344.92971902 261.32830783 345.56576586 259.02734375 346.20117188 C255.43987449 347.19512086 251.85386988 348.19345886 248.27099609 349.20385742 C244.78583115 350.18461095 241.29589593 351.1464852 237.8046875 352.10546875 C236.7399118 352.41058884 235.67513611 352.71570892 234.57809448 353.03007507 C228.76250442 354.61007454 223.93777279 355.46978536 218 354 C217.08148254 353.77462051 216.16296509 353.54924103 215.21661377 353.31703186 C211.89632161 352.45934212 208.59501444 351.54648494 205.29296875 350.62109375 C204.09062088 350.28956802 202.88827301 349.9580423 201.64949036 349.61647034 C198.47512733 348.74078176 195.30201853 347.86074678 192.12963867 346.97790527 C187.64498346 345.73003798 183.15924845 344.48615309 178.67195129 343.24781799 C176.28700905 342.58949174 173.90309094 341.92744186 171.52030945 341.26133728 C170.44521622 340.96425369 169.37012299 340.6671701 168.26245117 340.36108398 C167.31617355 340.0976268 166.36989594 339.83416962 165.39494324 339.56272888 C162.92328344 338.88563193 162.92328344 338.88563193 160 339 C160.02964844 337.69804687 160.05929688 336.39609375 160.08984375 335.0546875 C160.08862253 328.12551345 159.42277931 321.25773424 158.77319336 314.36621094 C158.5610169 312.10922382 158.35718017 309.85158957 158.15429688 307.59375 C157.47872208 299.73529232 157.47872208 299.73529232 156 292 C137.52 292 119.04 292 100 292 C102.64 321.7 105.28 351.4 108 382 C114.57679688 383.81886719 121.15359375 385.63773437 127.9296875 387.51171875 C132.13151348 388.67381704 136.3333378 389.83592133 140.53515625 390.99804688 C147.18374052 392.8368905 153.83233046 394.67571362 160.48095703 396.5144043 C165.84969628 397.99914114 171.2184077 399.48397855 176.58710098 400.96888161 C178.62087161 401.53137503 180.65465176 402.09383405 182.68844223 402.65625572 C184.62892378 403.19287842 186.56935144 403.729696 188.50972176 404.26672077 C190.36612324 404.77987087 192.22287989 405.29173808 194.08001518 405.80222607 C198.43286623 407.0007022 202.77681207 408.22068921 207.10797119 409.49551392 C208.3217554 409.84764183 208.3217554 409.84764183 209.5600605 410.20688343 C211.05390271 410.64135468 212.54543507 411.08390039 214.03379631 411.5367918 C221.60251418 413.72148278 228.13929723 413.30096045 235.74414062 411.12329102 C236.47419312 410.9231691 237.20424561 410.72304718 237.9564209 410.51686096 C240.35917257 409.85559364 242.75759677 409.17987483 245.15625 408.50390625 C246.86153288 408.03134431 248.56706404 407.55967749 250.27282715 407.08885193 C254.77413281 405.84373946 259.27189809 404.58627784 263.76904297 403.32623291 C268.22413076 402.08033371 272.68253224 400.84642224 277.140625 399.61132812 C298.10899883 393.7953055 319.05372472 387.89498855 340 382 C343.18902629 346.59359787 346.37430352 311.18686047 349.55455676 275.77966923 C349.93006155 271.59904137 350.30559736 267.41841631 350.68115234 263.23779297 C350.75591771 262.40550993 350.83068308 261.57322689 350.90771407 260.71572316 C352.11820282 247.24147426 353.33120423 233.7674527 354.5451352 220.29351354 C355.7907857 206.46687959 357.03373374 192.64000462 358.27417612 178.81290245 C359.03961064 170.28162725 359.80714964 161.75054677 360.57738602 153.21970373 C361.10544228 147.3688999 361.63087213 141.51786391 362.15424478 135.66663927 C362.45622797 132.29138558 362.75974951 128.91628915 363.0656147 125.54138374 C363.39733268 121.8791936 363.72466335 118.21663668 364.05090332 114.55395508 C364.14817703 113.49168324 364.24545074 112.42941139 364.34567213 111.33494949 C364.43275702 110.34715374 364.51984191 109.35935799 364.60956573 108.34162903 C364.6855098 107.49713101 364.76145387 106.652633 364.83969927 105.78254414 C365.04643804 102.19391571 365 98.59457855 365 95 C271.94 95 178.88 95 83 95 Z " fill="#000000" transform="translate(32,0)"/>
</svg>
