<?xml version="1.0" encoding="UTF-8"?>
<svg version="1.1" xmlns="http://www.w3.org/2000/svg" width="512" height="512">
<path d="M0 0 C149.49 0 298.98 0 453 0 C445.9847732 102.889993 445.9847732 102.889993 442.53422546 151.22909546 C442.40873543 152.9892473 442.28326599 154.74940062 442.15781468 156.50955522 C441.89739614 160.16319612 441.63689615 163.81683119 441.37634063 167.47046232 C440.97216741 173.13884281 440.56857916 178.80726486 440.16512489 184.47569656 C440.09684252 185.43503802 440.02856016 186.39437948 439.95820862 187.38279188 C439.81929754 189.33446649 439.68038749 191.28614118 439.54147843 193.23781593 C438.26413852 211.18360494 436.98520339 229.12927995 435.70565758 247.07491179 C434.61143799 262.42191667 433.5187161 277.76902764 432.42700195 293.11621094 C431.14440954 311.14673231 429.86088389 329.17718687 428.57589036 347.20753729 C428.43919102 349.12566915 428.30249299 351.04380109 428.16579628 352.96193314 C428.0650081 354.37618814 428.0650081 354.37618814 427.9621838 355.81901395 C427.49166723 362.42219587 427.02181697 369.025425 426.55223656 375.62867355 C425.98332841 383.62844326 425.41340594 391.62813993 424.84217741 399.6277443 C424.55168088 403.69627947 424.26163629 407.76484548 423.97284126 411.83350182 C423.70842015 415.55858812 423.44266535 419.28357685 423.17587022 423.00849386 C423.03477436 424.98315753 422.89507553 426.95792088 422.7554366 428.93268812 C422.27393973 435.63446166 421.71851715 442.31926577 421 449 C408.51154261 453.11833756 396.02295818 457.23628976 383.53427887 461.35395432 C381.47545431 462.03277383 379.41663166 462.71159918 377.35781097 463.39043045 C353.94220987 471.11095053 330.52591505 478.82934486 307.10546875 486.53515625 C306.20598196 486.83111694 305.30649517 487.12707764 304.37975121 487.43200684 C295.82835678 490.24565929 287.27683856 493.05893449 278.72485638 495.87080002 C276.36561929 496.64661573 274.00649722 497.42278038 271.64738464 498.19897461 C268.69627079 499.16985495 265.74458701 500.13897168 262.79243469 501.10668945 C256.65087868 503.12207109 250.51705728 505.15401829 244.40917969 507.27001953 C242.9480928 507.77239891 242.9480928 507.77239891 241.45748901 508.28492737 C239.73199985 508.88082473 238.00937546 509.48513464 236.290802 510.10069275 C235.5488559 510.35629471 234.80690979 510.61189667 234.04248047 510.87524414 C233.42291473 511.09491348 232.803349 511.31458282 232.16500854 511.54090881 C226.72347306 512.69478924 222.0109641 511.96185834 216.80541992 510.2253418 C215.60598251 509.8309642 214.4065451 509.43658661 213.17076111 509.03025818 C211.85727546 508.5867408 210.54384661 508.1430552 209.23046875 507.69921875 C207.82892644 507.23422362 206.42706668 506.77018437 205.0249176 506.30702209 C202.00045012 505.30579561 198.97824863 504.29809125 195.9576416 503.28527832 C191.12587016 501.66526476 186.2894182 500.05956352 181.45214844 498.45605469 C175.44521773 496.46378342 169.43944984 494.46807447 163.43506432 492.46814537 C147.19356852 487.0590069 130.93344235 481.70663927 114.67225552 476.35704708 C109.5098423 474.65866429 104.34799551 472.95857868 99.18682003 471.25643826 C95.89632278 470.17130112 92.60559078 469.08687687 89.31483269 468.00253105 C87.8349774 467.51474713 86.3552069 467.02670584 84.87555122 466.53831673 C72.87702956 462.57844185 60.85872543 458.67995479 48.8394165 454.78375244 C47.10502756 454.22140908 45.37064299 453.65905224 43.63626289 453.09668159 C39.42422564 451.73096564 35.21212928 450.3654321 31 449 C27.04495298 393.82229227 23.09514474 338.64421167 19.15234962 283.46562704 C18.68672791 276.94941272 18.22106289 270.4332015 17.75537109 263.91699219 C17.66266204 262.61974711 17.56995298 261.32250203 17.47443455 259.98594649 C15.97373885 238.98869425 14.46953531 217.99169471 12.96403235 196.99478666 C11.41901221 175.44564524 9.87776878 153.89623609 8.34002161 132.34657443 C7.39124227 119.05225514 6.43952739 105.75815273 5.48404133 92.46431376 C4.8288687 83.34483763 4.17736894 74.22510372 3.52873647 65.1051601 C3.15455892 59.8456487 2.77878256 54.58626463 2.39863777 49.32718086 C2.05016616 44.5057786 1.70634164 39.6840675 1.3661018 34.86207755 C1.24266996 33.12416536 1.11758051 31.38636987 0.99059957 29.64871339 C0.81713689 27.2715218 0.64993964 24.89396243 0.48413849 22.51622581 C0.38996785 21.20011515 0.2957972 19.88400449 0.19877291 18.52801168 C-0.07209911 12.35759496 0 6.1763593 0 0 Z M81 75 C81.63196725 87.63934505 82.30876304 100.25249804 83.19921875 112.87255859 C83.31612951 114.55046997 83.43287427 116.22839292 83.54946899 117.90632629 C83.86163742 122.39107176 84.17629114 126.87563933 84.49161148 131.36016417 C84.75581611 135.1208477 85.01880151 138.88161613 85.28181362 142.64238322 C85.90186114 151.50781187 86.52399217 160.37309259 87.14746094 169.23828125 C87.78948625 178.36786653 88.42789939 187.49769948 89.0645895 196.62765825 C89.61370653 204.49999879 90.16505191 212.37218112 90.71818638 220.2442404 C91.04756631 224.93221264 91.37610463 229.62023992 91.70248413 234.30842209 C92.00854186 238.70332307 92.31738362 243.09801969 92.62836838 247.49257469 C92.74183428 249.10255812 92.85432066 250.71261093 92.96574783 252.32273674 C93.11813287 254.52243353 93.27407872 256.72185038 93.4309082 258.92123413 C93.51717972 260.1507398 93.60345123 261.38024548 93.69233704 262.6470089 C93.97998095 265.78182723 94.48247405 268.8948443 95 272 C161.99 272 228.98 272 298 272 C297.34 279.26 296.68 286.52 296 294 C295.50714033 300.29639538 295.01811009 306.5906899 294.56738281 312.88989258 C294.37271149 315.59429234 294.17078058 318.29809432 293.96875 321.00195312 C293.28590461 330.36153416 292.83067018 339.61180232 293 349 C292.35177277 349.16666672 291.70354553 349.33333344 291.03567505 349.50505066 C283.70513844 351.44069206 276.58150656 353.79205635 269.4296875 356.30078125 C267.04597785 357.12161958 264.66185037 357.94124536 262.27734375 358.75976562 C258.56279345 360.03708845 254.85115102 361.3208957 251.14599609 362.62524414 C247.53910078 363.89225485 243.92326035 365.13008321 240.3046875 366.36328125 C238.65435013 366.9552404 238.65435013 366.9552404 236.97067261 367.55915833 C230.14140234 369.85211318 225.78556517 370.37183211 219 368 C218.0526297 367.70800217 217.1052594 367.41600433 216.12918091 367.11515808 C212.80424432 366.08282111 209.49998038 364.997764 206.1953125 363.90234375 C204.99437958 363.50801651 203.79344666 363.11368927 202.55612183 362.70741272 C199.3900393 361.66696877 196.22522382 360.62283728 193.06097412 359.57684326 C189.83336037 358.51094415 186.60410511 357.45004248 183.375 356.38867188 C167.72138794 351.24046265 167.72138794 351.24046265 161 349 C159.06411593 345.12823186 159.52390435 340.35796042 159.28125 336.08984375 C159.34428075 333.13091514 159.34428075 333.13091514 158 332 C156.15881971 331.90618698 154.31402359 331.88256046 152.47045898 331.88647461 C151.28931015 331.88655014 150.10816132 331.88662567 148.89122009 331.88670349 C146.96313255 331.89444542 146.96313255 331.89444542 144.99609375 331.90234375 C143.68794205 331.9037587 142.37979034 331.90517365 141.03199768 331.90663147 C137.54837141 331.9104559 134.06478661 331.92028554 130.58117676 331.93133545 C127.02873292 331.94155118 123.47628241 331.94612944 119.92382812 331.95117188 C112.94920168 331.96190788 105.97460283 331.9789834 99 332 C99.40700725 339.64256331 99.83979184 347.28329555 100.30554485 354.92249775 C100.52100672 358.46981382 100.72755109 362.01718374 100.91381836 365.56616211 C101.12834943 369.64621452 101.38146575 373.72307247 101.63671875 377.80078125 C101.69840744 379.07585037 101.76009613 380.35091949 101.82365417 381.66462708 C101.90335953 382.84562485 101.98306488 384.02662262 102.06518555 385.2434082 C102.12514206 386.28487503 102.18509857 387.32634186 102.24687195 388.39936829 C102.7746892 391.15899675 102.7746892 391.15899675 105.15052795 392.71469116 C108.23939204 394.10798235 111.30740244 395.25970204 114.52636719 396.3215332 C115.16424132 396.53382096 115.80211546 396.74610872 116.45931911 396.96482944 C118.57001822 397.66578052 120.68340974 398.35821996 122.796875 399.05078125 C124.29391688 399.54639219 125.79076467 400.0425897 127.28742981 400.53933716 C131.28222043 401.86377158 135.27926657 403.18126756 139.27678299 404.49744797 C145.8547319 406.66521999 152.42836825 408.84606907 159.00258064 411.02514076 C160.63488847 411.56607481 162.26727769 412.10676329 163.89974785 412.64720726 C173.8324221 415.93572164 183.75257572 419.2546296 193.64453125 422.6640625 C194.61375519 422.99792465 195.58297913 423.3317868 196.58157349 423.67576599 C200.8771286 425.15810642 205.16927349 426.64965987 209.45800781 428.15161133 C210.93160209 428.66238334 212.40523222 429.1730519 213.87890625 429.68359375 C215.71304077 430.32639282 215.71304077 430.32639282 217.58422852 430.98217773 C226.29646226 433.57822537 231.24435675 432.39291621 239.79443359 429.45751953 C240.96427795 429.06912903 242.13412231 428.68073853 243.3394165 428.28057861 C246.53292124 427.21696685 249.72140222 426.1402414 252.90831709 425.05716181 C256.24623294 423.92611404 259.58968685 422.81167644 262.93252563 421.69528198 C268.53926642 419.82024245 274.14222338 417.93426237 279.74267578 416.04052734 C287.64939721 413.36698684 295.56300302 410.71430506 303.47795367 408.06524491 C308.95655814 406.23075035 314.43350497 404.39131424 319.91013384 402.55093145 C321.23925526 402.10431395 322.56842289 401.65783393 323.89763594 401.2114892 C328.26068122 399.74616897 332.62177374 398.27515946 336.98193359 396.80126953 C338.08942963 396.42926422 339.19692566 396.05725891 340.33798218 395.67398071 C341.33893921 395.33459473 342.33989624 394.99520874 343.3711853 394.64553833 C344.24609304 394.35018755 345.12100079 394.05483677 346.02242088 393.75053596 C347.97108535 393.16564648 347.97108535 393.16564648 349 392 C349.24405193 389.89604293 349.42230534 387.784445 349.57582092 385.67195129 C349.6506065 384.668682 349.6506065 384.668682 349.7269029 383.64514464 C349.8940495 381.38718452 350.05454135 379.12879964 350.21508789 376.87036133 C350.33307782 375.25745385 350.4514596 373.644575 350.57020569 372.03172302 C350.89267879 367.63459721 351.20925336 363.23706468 351.52454305 358.83941865 C351.7885616 355.16474462 352.05550711 351.49028574 352.32248396 347.81582564 C352.95323958 339.13442877 353.5793338 330.45270439 354.20239258 321.77075195 C354.84358164 312.8370592 355.49168941 303.90388852 356.1434384 294.97096044 C356.70342777 287.29291978 357.25945058 279.61459903 357.81227487 271.93603915 C358.14213357 267.35459488 358.47335068 262.77326016 358.80821419 258.19217873 C359.12386678 253.87105659 359.43450232 249.54960085 359.74147606 245.22785378 C359.8542243 243.65168904 359.96863867 242.07564235 360.08495331 240.49973679 C360.24507398 238.32641233 360.39880735 236.15271693 360.55116272 233.97883606 C360.68195268 232.16393032 360.68195268 232.16393032 360.81538486 230.31235981 C361.07648063 224.21351597 361 218.10443013 361 212 C291.37 212 221.74 212 150 212 C149.505 201.605 149.505 201.605 149 191 C147.68 172.52 146.36 154.04 145 135 C218.26 135 291.52 135 367 135 C368.61990521 115.02116908 370.12932711 95.02547644 371 75 C275.3 75 179.6 75 81 75 Z " fill="#000000" transform="translate(30,0)"/>
</svg>
