<?xml version="1.0" encoding="UTF-8"?>
<svg version="1.1" xmlns="http://www.w3.org/2000/svg" width="512" height="512">
<path d="M0 0 C1.12930939 0.00182281 2.25861877 0.00364563 3.42214966 0.00552368 C21.94827766 0.05561855 40.13504835 0.73209213 58.5 3.3125 C59.7257373 3.48410645 60.95147461 3.65571289 62.21435547 3.83251953 C106.896223 10.34195968 162.37990037 24.32476686 191.78271484 61.95410156 C201.84137049 75.60207215 205.22401818 89.54010432 203.5 106.3125 C199.70588993 126.20351493 184.63364453 141.32847376 168.5 152.3125 C140.17754354 171.25264412 97.04596971 189.14707437 62.5 188.3125 C61.62601562 186.58580078 61.62601562 186.58580078 60.734375 184.82421875 C54.61509495 172.88446893 47.87259258 161.51770129 40.5 150.3125 C40.0992627 149.69648926 39.69852539 149.08047852 39.28564453 148.44580078 C18.79658249 117.07664679 -10.88023237 95.82659454 -47.625 87.625 C-51.09757678 86.90531535 -54.49276849 86.31327853 -58.01953125 85.93359375 C-64.75452267 85.20236611 -68.29673752 84.45236763 -72.71875 79.25 C-80.32825445 70.97299516 -91.8647877 66.69669126 -102.87109375 65.93359375 C-118.81416744 65.29681919 -132.29605543 69.60862828 -144.25 80.5 C-155.01749624 92.06988178 -158.33841057 105.53404727 -157.84765625 120.86328125 C-157.24326377 130.99497887 -153.6917148 139.37641885 -147.5 147.3125 C-147.09523437 147.89128906 -146.69046875 148.47007812 -146.2734375 149.06640625 C-142.08729748 154.6008429 -136.3034636 158.19993784 -130.64453125 162.078125 C-125.76817016 165.54306729 -124.17464516 167.51565137 -122.5 173.3125 C-148.76119928 166.6840723 -178.13222894 149.73915659 -193.375 126.875 C-201.26976693 113.64746983 -204.75968901 100.04997035 -201.81640625 84.76171875 C-195.26853525 62.07511176 -177.45735995 45.86180332 -157.5 34.3125 C-127.8549288 17.98003334 -95.55015147 9.38756398 -62.3125 4.0625 C-61.37760742 3.91119629 -60.44271484 3.75989258 -59.47949219 3.60400391 C-39.75083898 0.66166179 -19.917498 -0.06734307 0 0 Z " fill="#000000" transform="translate(255.5,31.6875)"/>
<path d="M0 0 C1.28797541 0.95738561 2.57477941 1.91634725 3.86108398 2.87597656 C4.5777977 3.40982971 5.29451141 3.94368286 6.03294373 4.49371338 C8.17035985 6.1304542 10.12073112 7.8865615 12.0625 9.75 C39.17491007 34.12331385 77.25477313 47.57748229 112 56 C112.87221191 56.2160791 113.74442383 56.4321582 114.64306641 56.65478516 C125.04639006 59.18346368 135.42055797 61.00038647 146.0625 62.140625 C146.94938507 62.23870956 147.83627014 62.33679413 148.75003052 62.43785095 C153.20289108 62.92833867 157.65401598 63.38239776 162.11669922 63.77368164 C172.41381235 64.79250556 178.42390295 66.51581884 186 74 C199.16885749 83.543665 216.38242842 93.51068833 233 92 C241.62172827 90.06069527 248.70478653 86.15297412 253.53125 78.60546875 C256.20254028 73.55020721 257.86128658 68.59004769 259 63 C263.40492101 61.56484832 267.35485165 60.78476145 272 61 C275.99710705 63.22711151 279.03768848 66.25307832 282.28808594 69.41894531 C285.45188385 72.34090128 288.92909327 74.86094873 292.375 77.4375 C296.57745155 80.60407672 300.76226075 83.77247249 304.8125 87.1328125 C313.1618213 94.03434637 321.40584303 99.94438637 332.75 99.31640625 C341.69905419 98.0579455 348.99718886 94.96348581 354.7578125 87.8203125 C360.7625776 79.20477997 361.92538419 71.41350052 361 61 C359.46256617 54.80423373 356.00179333 50.41170471 351.68359375 45.82421875 C349.97403996 43.9718716 348.48030254 42.03822812 347 40 C348.61803374 36.76393252 352.03714167 35.87732803 355.1875 34.375 C371.17400869 26.54103801 385.21688189 17.2728 398.72485352 5.62963867 C401.08750879 3.59378472 403.39999853 1.73333431 406 0 C406.09302055 11.26645507 406.16392697 22.53281753 406.20724869 33.79957962 C406.22804968 39.03221533 406.25622942 44.26458669 406.30175781 49.49707031 C406.345484 54.5545585 406.36919331 59.61179373 406.37950897 64.66945648 C406.38685256 66.59101081 406.40119184 68.5125526 406.42292023 70.43399811 C406.53727515 80.97353249 406.42455601 90.19508366 402 100 C401.2575 101.65322266 401.2575 101.65322266 400.5 103.33984375 C381.20674648 136.75133748 341.17797546 152.75014981 305.75 162.6875 C283.16896075 168.71789035 259.3183841 172.45638144 236 174 C235.22479004 174.05494629 234.44958008 174.10989258 233.65087891 174.16650391 C166.56853052 178.76899654 81.04927282 172.69706457 27.23046875 127.68359375 C24.76987632 125.50336867 22.37642699 123.27127535 20 121 C19.36449219 120.42765625 18.72898437 119.8553125 18.07421875 119.265625 C8.11003603 109.98634175 0.95523363 96.48050424 -0.18126297 82.82148552 C-0.24293034 80.60370149 -0.24797328 78.39406899 -0.22705078 76.17553711 C-0.22734283 75.34516937 -0.22763489 74.51480164 -0.22793579 73.65927124 C-0.22655626 70.94851777 -0.21106083 68.23804846 -0.1953125 65.52734375 C-0.19157746 63.63448741 -0.18873281 61.74162912 -0.18673706 59.84877014 C-0.17913926 54.89220747 -0.15952425 49.93576397 -0.1373291 44.97924805 C-0.11678726 39.91131197 -0.10771758 34.84335643 -0.09765625 29.77539062 C-0.0762744 19.85020836 -0.04218548 9.92511413 0 0 Z " fill="#000000" transform="translate(53,306)"/>
<path d="M0 0 C6.36387067 4.93798085 6.36387067 4.93798085 8.94824219 8.0324707 C13.09455091 12.81453855 16.23548709 14.12963959 22.50366211 14.74316406 C23.48343018 14.81245117 24.46319824 14.88173828 25.47265625 14.953125 C27.53719438 15.16346987 29.60102046 15.38092438 31.6640625 15.60546875 C33.16090576 15.76378174 33.16090576 15.76378174 34.68798828 15.92529297 C57.47486764 18.71022282 79.05761604 30.95727089 95.11230469 46.93310547 C96.25273606 48.05020425 97.43986665 49.11935403 98.63671875 50.17578125 C106.08836629 56.90679621 111.11433841 65.87017586 116.47265625 74.265625 C117.198479 75.39170166 117.198479 75.39170166 117.93896484 76.54052734 C119.31235712 78.67308593 120.67621591 80.81133342 122.03515625 82.953125 C122.44040527 83.58734375 122.8456543 84.2215625 123.26318359 84.875 C123.83286865 85.78572266 123.83286865 85.78572266 124.4140625 86.71484375 C124.74092041 87.23393311 125.06777832 87.75302246 125.40454102 88.2878418 C126.6272996 90.55197147 127.61085666 92.89169935 128.60868835 95.26170349 C131.43644535 101.82051557 134.64498447 108.22080488 137.74951172 114.65161133 C138.64276062 116.50782849 139.53085353 118.36653633 140.41357422 120.2277832 C145.56834502 131.09175675 150.69500715 141.013153 158.47265625 150.265625 C159.09970459 151.05308105 159.72675293 151.84053711 160.37280273 152.65185547 C169.60502585 163.76163909 182.26620663 170.75876916 194.59765625 177.890625 C220.11774047 192.70492453 220.11774047 192.70492453 222.72265625 197.765625 C223.63951738 202.04431027 223.20800971 204.26676702 221.47265625 208.265625 C217.93874573 213.28242985 212.62904077 213.79531952 206.97265625 215.015625 C206.02261719 215.23605469 205.07257813 215.45648438 204.09375 215.68359375 C200.07355321 216.59393367 196.61967087 217.265625 192.47265625 217.265625 C196.04940342 220.98224497 199.82189176 224.24176694 203.91015625 227.390625 C204.51126221 227.85927979 205.11236816 228.32793457 205.73168945 228.81079102 C208.29476548 230.80850708 210.8644874 232.79741954 213.43945312 234.77978516 C214.73012275 235.77357498 216.01930012 236.76930626 217.30688477 237.76708984 C218.514748 238.70302075 219.7260258 239.63456659 220.94116211 240.56103516 C228.03590548 246.06613238 228.03590548 246.06613238 228.90625 250.44921875 C228.91288064 254.27509675 228.73814461 256.7457103 226.97265625 260.203125 C223.74953902 262.86219672 220.70073602 264.32324789 216.47265625 264.265625 C210.86379483 262.36957879 206.85014123 259.47822567 202.34765625 255.703125 C201.02430026 254.61873792 199.70006644 253.53542132 198.375 252.453125 C197.71870605 251.91429687 197.06241211 251.37546875 196.38623047 250.8203125 C193.60282668 248.55893009 190.76245168 246.37653278 187.91015625 244.203125 C181.59468871 239.37342103 175.33559794 234.47475586 169.09765625 229.54541016 C167.56094254 228.33515576 166.01700819 227.13408608 164.47265625 225.93359375 C163.58578125 225.23878906 162.69890625 224.54398438 161.78515625 223.828125 C160.63466797 222.93287109 160.63466797 222.93287109 159.4609375 222.01953125 C155.88468904 218.86484449 154.55867361 217.16880727 154.09765625 212.328125 C154.27341249 208.54585075 154.89878506 206.1716086 157.47265625 203.265625 C163.85347585 199.57892923 171.31462178 198.66546253 178.47265625 197.265625 C178.47265625 196.605625 178.47265625 195.945625 178.47265625 195.265625 C176.20569368 193.80872372 173.94154415 192.4629184 171.59765625 191.140625 C165.07188525 187.33935381 159.19388486 183.21761279 153.47265625 178.265625 C152.65410156 177.59144531 151.83554687 176.91726563 150.9921875 176.22265625 C132.06508537 160.11261118 122.0324469 136.34893683 111.60546875 114.34765625 C97.47889452 84.93486364 78.44854592 55.93706732 47.05078125 43.51171875 C36.33106576 39.77854272 26.39919737 37.78889301 15.03051758 37.68041992 C8.2474147 37.55043647 3.12368965 36.09167187 -1.84375 31.234375 C-2.93629548 30.08805477 -4.01826303 28.93156687 -5.08984375 27.765625 C-8.92723147 23.62032713 -12.14343324 20.37964636 -17.52734375 18.265625 C-20.42904226 18.40058772 -21.92426601 18.83485518 -24.27734375 20.515625 C-25.94251961 22.8468712 -26.39074321 24.39701375 -26.52734375 27.265625 C-23.94751924 33.7263062 -17.20193075 36.67675371 -11.57421875 40.18554688 C-5.8730876 43.89305817 -2.5991156 47.22538326 0.47265625 53.265625 C1.18325195 54.5815564 1.18325195 54.5815564 1.90820312 55.92407227 C3.49244534 58.89301666 5.01802204 61.88689009 6.53515625 64.890625 C7.05142578 65.88191406 7.56769531 66.87320313 8.09960938 67.89453125 C14.98569819 81.52635548 17.28661141 95.29158866 19.03515625 110.265625 C19.76422624 128.4241973 19.76422624 128.4241973 25.47265625 144.265625 C26.02953125 143.316875 26.58640625 142.368125 27.16015625 141.390625 C29.62637847 138.05789227 30.48202999 137.08188946 34.47265625 136.265625 C40.11551339 136.265625 40.11551339 136.265625 42.47265625 137.265625 C46.36689082 141.39679609 48.32587068 144.76431575 50.05078125 150.25390625 C50.48864511 151.60583232 50.92689165 152.95763449 51.36547852 154.30932617 C51.6972258 155.35617081 51.6972258 155.35617081 52.03567505 156.42416382 C62.74154752 189.99136139 80.50632196 214.81928658 112.27148438 231.44506836 C113.95957623 232.31039141 115.65346209 233.16452401 117.35351562 234.00610352 C118.12244141 234.39080811 118.89136719 234.7755127 119.68359375 235.171875 C120.70912354 235.67170898 120.70912354 235.67170898 121.75537109 236.18164062 C123.47265625 237.265625 123.47265625 237.265625 125.47265625 240.265625 C126.01867659 243.65669871 126.01893549 246.87436676 125.47265625 250.265625 C123.28242707 253.08986788 121.64248418 254.68071103 118.47265625 256.265625 C112.08485398 256.77390174 108.16670126 255.67878244 102.59765625 252.640625 C101.89858154 252.27308105 101.19950684 251.90553711 100.47924805 251.52685547 C98.46606432 250.45871152 96.46790912 249.36681581 94.47265625 248.265625 C93.08626953 247.51539063 93.08626953 247.51539063 91.671875 246.75 C68.86540031 233.76038757 45.92583343 210.62515655 37.47265625 185.265625 C37.24191406 185.80832031 37.01117188 186.35101563 36.7734375 186.91015625 C35.22920687 190.29769774 34.00475438 192.80543202 31.16015625 195.265625 C26.53342594 196.98719907 23.07542941 196.95313593 18.53125 195.00390625 C13.67907656 191.57479505 12.62750394 185.42323657 10.97265625 180.015625 C10.58956299 178.80922363 10.20646973 177.60282227 9.81176758 176.35986328 C3.01328787 154.57904666 -1.66682854 132.67338495 -4.26171875 110 C-5.45074458 99.65159176 -6.61460641 90.60102125 -11.52734375 81.265625 C-12.72136203 78.89075583 -13.90619706 76.51140503 -15.09130859 74.13208008 C-15.91246249 72.49346539 -16.74200135 70.85902118 -17.58056641 69.22924805 C-17.96132324 68.48586182 -18.34208008 67.74247559 -18.734375 66.9765625 C-19.07960205 66.30931152 -19.4248291 65.64206055 -19.78051758 64.95458984 C-20.52734375 63.265625 -20.52734375 63.265625 -20.52734375 61.265625 C-21.18734375 61.05164063 -21.84734375 60.83765625 -22.52734375 60.6171875 C-26.59337267 58.78535676 -29.95902407 56.29382211 -33.52734375 53.640625 C-34.22601563 53.14433594 -34.9246875 52.64804688 -35.64453125 52.13671875 C-42.2620446 47.22977017 -46.55677144 41.36446065 -48.52734375 33.265625 C-49.63713612 22.37417433 -48.2443508 13.57573032 -41.33984375 4.953125 C-30.80557701 -6.26223658 -12.87570303 -8.83587658 0 0 Z " fill="#000000" transform="translate(165.52734375,121.734375)"/>
<path d="M0 0 C1.28797541 0.95738561 2.57477941 1.91634725 3.86108398 2.87597656 C4.5777977 3.40982971 5.29451141 3.94368286 6.03294373 4.49371338 C8.17035985 6.1304542 10.12073112 7.8865615 12.0625 9.75 C33.53657961 29.02536839 62.15359311 40.55516681 89 50 C89.13462646 51.19653198 89.13462646 51.19653198 89.27197266 52.41723633 C92.45556413 80.14382035 97.81422182 106.56321973 107 133 C107.34160156 133.99209473 107.68320313 134.98418945 108.03515625 136.00634766 C108.37675781 136.97620605 108.71835938 137.94606445 109.0703125 138.9453125 C109.37469238 139.81172363 109.67907227 140.67813477 109.99267578 141.57080078 C112.96673578 148.74285531 117.91223133 153.87095162 125 157 C130.44123638 158.81863426 135.56402384 160.30588747 141.3125 159.625 C145 160 145 160 147.04296875 161.921875 C152 168.13547904 152 168.13547904 152 171 C143.61027597 170.4527417 135.44723364 169.37010521 127.1875 167.8125 C126.01968994 167.59327881 124.85187988 167.37405762 123.64868164 167.14819336 C112.28382828 164.9550301 101.11574522 162.21938345 90 159 C89.22430664 158.77763672 88.44861328 158.55527344 87.64941406 158.32617188 C63.95801308 151.39159841 39.69735476 140.55689956 22 123 C21.113125 122.154375 20.22625 121.30875 19.3125 120.4375 C18.549375 119.633125 17.78625 118.82875 17 118 C16.48179688 117.49984375 15.96359375 116.9996875 15.4296875 116.484375 C11.21905268 112.14156779 8.4055077 107.41585017 5.6875 102.0625 C5.35000732 101.40660889 5.01251465 100.75071777 4.66479492 100.07495117 C0.89047098 92.34593737 -0.30761063 84.71775811 -0.22705078 76.17553711 C-0.22734283 75.34516937 -0.22763489 74.51480164 -0.22793579 73.65927124 C-0.22655626 70.94851777 -0.21106083 68.23804846 -0.1953125 65.52734375 C-0.19157746 63.63448741 -0.18873281 61.74162912 -0.18673706 59.84877014 C-0.17913926 54.89220747 -0.15952425 49.93576397 -0.1373291 44.97924805 C-0.11678726 39.91131197 -0.10771758 34.84335643 -0.09765625 29.77539062 C-0.0762744 19.85020836 -0.04218548 9.92511413 0 0 Z " fill="#000000" transform="translate(53,178)"/>
<path d="M0 0 C0.06973806 11.02298859 0.1229317 22.04592405 0.15543652 33.06908894 C0.17104302 38.18847297 0.19218903 43.30770524 0.22631836 48.42700195 C0.25909148 53.3742489 0.27689067 58.32135054 0.28463173 63.26869774 C0.29014317 65.14919507 0.30090507 67.02968512 0.31719017 68.91012001 C0.49941897 90.83886983 -4.84988717 106.52061987 -20.49609375 122.55859375 C-25.58625564 127.40672714 -30.99964012 131.57356958 -36.8125 135.5 C-37.43463379 135.921604 -38.05676758 136.34320801 -38.69775391 136.77758789 C-42.3504406 139.16588304 -45.75820966 140.80476352 -50 142 C-50.14695312 141.38253906 -50.29390625 140.76507813 -50.4453125 140.12890625 C-54.05224428 126.50962938 -61.23763396 120.89402689 -73 114 C-77.19137681 111.506486 -81.37714648 109.00360856 -85.5625 106.5 C-86.65409424 105.84741211 -87.74568848 105.19482422 -88.87036133 104.52246094 C-106.58580951 93.89238794 -124.9107996 82.00933541 -131 61 C-126.32528056 59.27099418 -121.61447751 58.23324802 -116.75341797 57.20043945 C-74.82597496 48.17373722 -34.37007052 31.55494017 -2.94140625 1.765625 C-1 0 -1 0 0 0 Z " fill="#000000" transform="translate(459,178)"/>
<path d="M0 0 C4.01684726 2.93915653 6.95784056 6.06102168 8.5625 10.875 C9.06489055 17.02928421 9.37335391 22.70312684 5.5625 27.875 C3.79418945 28.82299805 3.79418945 28.82299805 1.5625 28.875 C-0.48201321 27.34292035 -2.12282514 25.89066513 -3.89453125 24.08203125 C-4.40175217 23.57959396 -4.90897308 23.07715668 -5.43156433 22.55949402 C-6.50081939 21.49364209 -7.56378317 20.42144707 -8.62084961 19.34350586 C-10.24412737 17.69346944 -11.8923166 16.07177377 -13.54492188 14.45117188 C-14.57973199 13.41305773 -15.61299001 12.37339364 -16.64453125 11.33203125 C-17.14024124 10.84644241 -17.63595123 10.36085358 -18.14668274 9.86054993 C-19.50317383 8.45629883 -19.50317383 8.45629883 -21.4375 5.875 C-21.37402344 3.6418457 -21.37402344 3.6418457 -20.4375 1.875 C-14.55935003 -2.75626968 -6.84318263 -2.23958704 0 0 Z " fill="#000000" transform="translate(216.4375,184.125)"/>
</svg>
