<?xml version="1.0" encoding="UTF-8"?>
<svg version="1.1" xmlns="http://www.w3.org/2000/svg" width="512" height="512">
<path d="M0 0 C1.01790619 0.00215515 2.03581238 0.0043103 3.08456421 0.00653076 C17.69363523 0.05620146 32.02575853 0.30709809 46.375 3.3125 C47.34985352 3.51117676 48.32470703 3.70985352 49.32910156 3.91455078 C97.7109774 14.03517194 141.69928269 35.9516877 177.375 70.3125 C178.3640332 71.26068604 178.3640332 71.26068604 179.37304688 72.22802734 C188.86130305 81.37247479 197.6012044 90.66984009 205.375 101.3125 C206.23306152 102.46355017 207.09113451 103.61459177 207.94921875 104.765625 C213.98736829 112.95680614 219.34595521 121.47054105 224.375 130.3125 C224.73948242 130.94430176 225.10396484 131.57610352 225.47949219 132.22705078 C247.08534998 169.97532572 256.85198095 212.74189997 256.6875 255.9375 C256.68534485 256.95540619 256.6831897 257.97331238 256.68096924 259.02206421 C256.63129854 273.63113523 256.38040191 287.96325853 253.375 302.3125 C253.07698486 303.77478027 253.07698486 303.77478027 252.77294922 305.26660156 C242.65232806 353.6484774 220.7358123 397.63678269 186.375 433.3125 C185.74287598 433.97185547 185.11075195 434.63121094 184.45947266 435.31054688 C175.31502521 444.79880305 166.01765991 453.5387044 155.375 461.3125 C154.22394983 462.17056152 153.07290823 463.02863451 151.921875 463.88671875 C143.73224019 469.92427396 135.22961724 475.30707302 126.375 480.3125 C125.66778809 480.7146875 124.96057617 481.116875 124.23193359 481.53125 C101.09654164 494.5566741 75.92537591 503.30551461 49.9375 508.625 C49.21860596 508.77235596 48.49971191 508.91971191 47.7590332 509.0715332 C33.08339502 511.86090125 18.55831162 512.66142619 3.64770508 512.62817383 C0.70811513 512.6250221 -2.2304558 512.64854926 -5.16992188 512.67382812 C-18.54306192 512.71848737 -31.43916711 511.51301542 -44.625 509.3125 C-46.33055054 509.03031616 -46.33055054 509.03031616 -48.07055664 508.74243164 C-91.33802759 500.97044532 -132.38793216 480.98345309 -165.625 452.3125 C-166.37007813 451.67828125 -167.11515625 451.0440625 -167.8828125 450.390625 C-181.38779833 438.57948485 -194.05918743 425.82889772 -204.625 411.3125 C-205.48149066 410.16255169 -206.33826433 409.01281411 -207.1953125 407.86328125 C-213.23534209 399.67315742 -218.61867614 391.16870382 -223.625 382.3125 C-224.0271875 381.60528809 -224.429375 380.89807617 -224.84375 380.16943359 C-237.8691741 357.03404164 -246.61801461 331.86287591 -251.9375 305.875 C-252.08485596 305.15610596 -252.23221191 304.43721191 -252.3840332 303.6965332 C-255.35789088 288.05024391 -255.99800362 272.57681954 -255.9375 256.6875 C-255.93534485 255.66959381 -255.9331897 254.65168762 -255.93096924 253.60293579 C-255.88129854 238.99386477 -255.63040191 224.66174147 -252.625 210.3125 C-252.42632324 209.33764648 -252.22764648 208.36279297 -252.02294922 207.35839844 C-241.90232806 158.9765226 -219.9858123 114.98821731 -185.625 79.3125 C-184.99287598 78.65314453 -184.36075195 77.99378906 -183.70947266 77.31445312 C-174.56502521 67.82619695 -165.26765991 59.0862956 -154.625 51.3125 C-153.47394983 50.45443848 -152.32290823 49.59636549 -151.171875 48.73828125 C-142.98224019 42.70072604 -134.47961724 37.31792698 -125.625 32.3125 C-124.91778809 31.9103125 -124.21057617 31.508125 -123.48193359 31.09375 C-100.34654164 18.0683259 -75.17537591 9.31948539 -49.1875 4 C-48.46860596 3.85264404 -47.74971191 3.70528809 -47.0090332 3.5534668 C-31.36274391 0.57960912 -15.88931954 -0.06050362 0 0 Z " fill="#000000" transform="translate(255.625,-0.3125)"/>
<path d="M0 0 C1.48512353 -0.01144635 2.97020835 -0.03178003 4.45507812 -0.06152344 C29.69717679 -0.56467886 53.90671358 8.33708714 72.74902344 25.29516602 C73.49152344 25.95516602 74.23402344 26.61516602 74.99902344 27.29516602 C84.5895083 36.30440937 89.37849755 46.70213484 90.03027344 59.83813477 C90.36332322 71.56450428 89.09336444 82.82276167 86.74902344 94.29516602 C86.57741699 95.13692383 86.40581055 95.97868164 86.22900391 96.84594727 C83.45752993 110.06184104 79.55826629 122.68733472 74.74902344 135.29516602 C74.37616211 136.27533691 74.00330078 137.25550781 73.61914062 138.26538086 C65.13149412 160.39662321 55.3343899 181.07817654 42.8972168 201.26831055 C41.61201886 203.38541911 41.61201886 203.38541911 40.74902344 206.29516602 C45.0969522 208.44355435 49.1181364 208.60427158 53.87402344 208.54516602 C55.00952637 208.53936523 55.00952637 208.53936523 56.16796875 208.53344727 C61.28376031 208.45497752 66.04137606 207.81454632 71.04980469 206.75610352 C76.19587653 205.87732424 81.58552927 205.45937409 86.74902344 206.29516602 C89.91245276 208.73748084 90.65456096 209.65754428 91.24902344 213.67016602 C90.36462831 220.0820307 86.63160553 223.85589562 81.78417969 227.78735352 C68.0608628 237.95472457 52.74629306 241.6902911 35.87402344 241.48266602 C34.85566406 241.48202148 33.83730469 241.48137695 32.78808594 241.48071289 C24.65993169 241.43258566 24.65993169 241.43258566 20.74902344 240.29516602 C20.6383252 241.30716064 20.52762695 242.31915527 20.41357422 243.36181641 C19.99411766 247.19208988 19.57232576 251.02210347 19.14990234 254.85205078 C18.96894743 256.49553772 18.78858833 258.13909039 18.60888672 259.78271484 C17.45765585 270.30779482 16.2108026 280.80789901 14.74902344 291.29516602 C14.6363916 292.12540283 14.52375977 292.95563965 14.40771484 293.81103516 C12.12691964 310.12076729 8.04917945 324.61287948 -5.59472656 335.09594727 C-19.01159571 343.87354185 -36.46169151 346.32904154 -52.14941406 343.83422852 C-61.86166166 340.93759327 -68.44619423 333.97893115 -73.25097656 325.29516602 C-78.29993533 314.00847248 -80.05988737 302.78488582 -80.76269531 290.53735352 C-80.8263755 289.43877769 -80.8263755 289.43877769 -80.89134216 288.31800842 C-81.36369401 279.79450988 -81.59408309 271.26572899 -81.81347656 262.73266602 C-81.8568504 261.12393541 -81.90046924 259.51521139 -81.94433594 257.90649414 C-82.04935602 254.03612104 -82.15112351 250.16567573 -82.25097656 246.29516602 C-82.92354492 246.70726318 -83.59611328 247.11936035 -84.2890625 247.54394531 C-85.62372559 248.35472534 -85.62372559 248.35472534 -86.98535156 249.18188477 C-87.86416992 249.71773193 -88.74298828 250.2535791 -89.6484375 250.80566406 C-100.77543573 257.1739395 -114.56360455 257.958513 -127.00488281 255.57641602 C-133.85965684 253.60656206 -140.29839099 251.27473787 -144.68847656 245.35766602 C-145.48961974 242.42014104 -145.684797 240.33190908 -145.25097656 237.29516602 C-140.28824069 231.01876476 -133.93671482 229.02829046 -126.37597656 227.35766602 C-115.87988865 224.84051547 -110.17640804 222.54243029 -104.25097656 213.29516602 C-105.36472656 213.37766602 -106.47847656 213.46016602 -107.62597656 213.54516602 C-112.30628029 213.59513367 -115.79681412 212.00053816 -119.95410156 209.97485352 C-122.18580462 209.09846396 -122.18580462 209.09846396 -124.19238281 209.80688477 C-127.14525307 211.9416923 -129.51464456 214.53594457 -131.93847656 217.23266602 C-132.46739502 217.81314697 -132.99631348 218.39362793 -133.54125977 218.99169922 C-137.54889999 223.42559397 -141.34434908 228.01158781 -145.10253906 232.65844727 C-159.6137733 250.46768929 -159.6137733 250.46768929 -169.45019531 251.53344727 C-178.15702221 251.79314854 -184.1109696 248.99645619 -190.48535156 243.13891602 C-208.41439877 224.41654814 -216.95300006 196.76186445 -224.26855469 172.54272461 C-224.92269176 170.38036593 -225.58935025 168.22175504 -226.26855469 166.06713867 C-229.8977743 154.5368781 -232.69844023 142.83064152 -235.39160156 131.05249023 C-235.93673069 128.66909896 -236.49040201 126.28763236 -237.05566406 123.90893555 C-240.37757772 109.72873067 -241.71831766 96.00206812 -241.75097656 81.48266602 C-241.75555878 80.72662079 -241.76014099 79.97057556 -241.76486206 79.19161987 C-241.81261698 59.4013862 -237.44625545 39.13246783 -223.90722656 23.85766602 C-212.82655875 13.40420581 -201.04950043 8.10669558 -186.25097656 5.29516602 C-185.34863281 5.11083008 -184.44628906 4.92649414 -183.51660156 4.73657227 C-161.25319756 1.7272844 -138.08715203 6.02069347 -117.07519531 13.41235352 C-110.96175791 15.32333118 -106.93188127 13.24086846 -101.50097656 10.42016602 C-100.57800781 9.90711914 -99.65503906 9.39407227 -98.70410156 8.86547852 C-89.25735563 4.56956012 -80.25214349 3.86381147 -70.02392578 4.01391602 C-67.85854993 4.04541955 -65.69390413 4.05493677 -63.52832031 4.06079102 C-52.51073801 4.1332949 -52.51073801 4.1332949 -47.25097656 5.29516602 C-40.51052041 5.84766242 -34.65521716 4.58864894 -28.18725586 2.80615234 C-27.53668213 2.62850342 -26.8861084 2.45085449 -26.21582031 2.26782227 C-25.64468506 2.10548096 -25.0735498 1.94313965 -24.48510742 1.77587891 C-16.40451225 0.0371955 -8.22629011 0.04387116 0 0 Z " fill="#F8F8F8" transform="translate(331.2509765625,102.704833984375)"/>
<path d="M0 0 C1.6569515 1.49052211 3.29356805 3.00432126 4.8984375 4.55078125 C7.07073617 6.68586776 7.07073617 6.68586776 9.59375 8.58984375 C22.31884422 19.01762897 30.80207669 35.70644188 37.08203125 50.62890625 C37.08203125 50.95890625 37.08203125 51.28890625 37.08203125 51.62890625 C36.4679541 51.63825195 35.85387695 51.64759766 35.22119141 51.65722656 C32.38238692 51.71160366 29.54511393 51.79511177 26.70703125 51.87890625 C25.74152344 51.89308594 24.77601563 51.90726562 23.78125 51.921875 C15.69880696 52.19309792 9.25968268 54.21515209 2.26953125 58.25390625 C-4.69573652 65.81619698 -5.57495883 73.32349301 -5.2890625 83.1875 C-4.69126807 92.28933529 -2.57937516 100.49628444 0.95703125 108.87890625 C1.34632813 109.81565186 1.735625 110.75239746 2.13671875 111.7175293 C6.40848003 121.76033994 11.47135317 131.36437346 16.65380859 140.96044922 C17.99857648 143.47298135 19.30749448 146.00012072 20.6015625 148.5390625 C24.18787708 155.54408588 27.68883987 162.06219243 32.8671875 168.0625 C34.08203125 169.62890625 34.08203125 169.62890625 34.08203125 171.62890625 C33.28539062 171.95761719 33.28539062 171.95761719 32.47265625 172.29296875 C27.42453213 174.55909746 24.72087943 176.56231774 22.08203125 181.62890625 C21.04733118 184.97513171 20.75651053 188.32108346 20.43359375 191.80078125 C20.31685303 193.01491699 20.2001123 194.22905273 20.07983398 195.47998047 C19.95680908 196.76662598 19.83378418 198.05327148 19.70703125 199.37890625 C18.78820323 208.74143453 17.67302639 217.9336603 15.765625 227.14453125 C15.0409199 230.83845668 14.54325388 234.51838411 14.08203125 238.25390625 C13.3206437 244.26320466 12.20379859 250.10283361 10.86328125 256.0078125 C10.3035228 258.60229293 9.80290458 261.16706125 9.36328125 263.78125 C7.36235224 275.6675906 4.76305559 283.81349598 -4.91796875 291.62890625 C-14.27356172 297.75227178 -27.671439 302.52614692 -38.91796875 300.62890625 C-45.32495625 298.71923978 -48.38755165 295.22276348 -51.91796875 289.62890625 C-58.99071281 275.93570604 -58.75875901 261.2830165 -58.66796875 246.25390625 C-58.66942309 242.93171115 -58.67949874 239.60982572 -58.69927979 236.28768921 C-58.70928588 234.24183445 -58.70806241 232.19587731 -58.69281006 230.15005493 C-58.69706588 222.18818488 -59.38758402 214.22006044 -61.91796875 206.62890625 C-62.00716993 205.26513083 -62.04937514 203.89790843 -62.05859375 202.53125 C-62.14444011 189.27815249 -62.14444011 189.27815249 -67.91796875 177.62890625 C-72.74300422 173.03363438 -78.53351621 172.49228417 -84.91796875 171.62890625 C-82.00489681 162.50554909 -78.97815494 153.50984516 -75.23046875 144.69140625 C-66.69392862 124.4981848 -65.80353935 103.13641663 -69.66796875 81.62890625 C-69.82483154 80.74058105 -69.98169434 79.85225586 -70.14331055 78.93701172 C-71.94960292 69.85963449 -75.1610056 62.59846941 -82.96875 57.21484375 C-91.83469872 52.02006529 -101.20011626 52.58126625 -110.98046875 54.81640625 C-117.45614468 56.63413984 -123.69570213 59.08982003 -129.91796875 61.62890625 C-129.16525169 37.88068294 -122.04265649 14.54635993 -105.4765625 -3.08203125 C-76.88107536 -28.66516936 -28.54870257 -23.19820945 0 0 Z " fill="#010101" transform="translate(322.91796875,136.37109375)"/>
<path d="M0 0 C1.14726562 0.22945313 2.29453125 0.45890625 3.4765625 0.6953125 C11.03563359 2.25982612 18.52659774 4.07005546 26 6 C24.64214043 8.97154776 23.05902761 11.21489217 20.9375 13.6875 C11.78242033 25.36548262 6.41516618 38.68044967 3 53 C2.84305664 53.65726074 2.68611328 54.31452148 2.52441406 54.99169922 C0.07823618 65.45239753 -1.14515089 75.05835566 -1.0625 85.77734375 C-1.05871338 86.90266006 -1.05492676 88.02797638 -1.05102539 89.18739319 C-1.03474583 93.97971106 -1.00659084 98.77194206 -0.97949219 103.56420898 C-0.96135896 107.07274986 -0.94929609 110.58127675 -0.9375 114.08984375 C-0.92505249 115.70112404 -0.92505249 115.70112404 -0.91235352 117.34495544 C-0.89397097 123.00949808 -1.19663614 128.39487701 -2 134 C-3.07413954 150.05431182 -1.75745233 163.64016307 8 177 C9.11665881 178.15396367 10.26049636 179.28265323 11.4375 180.375 C12.283125 181.24125 13.12875 182.1075 14 183 C13.72890381 186.27560957 12.40162045 187.98213253 10.15625 190.28515625 C9.28214478 191.19696655 9.28214478 191.19696655 8.39038086 192.12719727 C7.76655518 192.76584717 7.14272949 193.40449707 6.5 194.0625 C0.12935326 200.72482076 -5.79922006 207.57304646 -11.4453125 214.8671875 C-14.5693234 218.81640883 -17.81931508 222.37533643 -22.94921875 223.3828125 C-29.0459755 223.7311986 -32.21813521 221.41794013 -36.76171875 217.46875 C-50.42063768 203.94835966 -56.93183353 182.74546837 -63 165 C-63.52787109 163.45989258 -63.52787109 163.45989258 -64.06640625 161.88867188 C-69.1866336 146.7830565 -73.50687095 131.56069394 -77 116 C-77.31192865 114.64109421 -77.62394462 113.28220846 -77.93603516 111.92333984 C-84.44927682 83.29595341 -90.57146225 50.84838815 -75.7578125 23.71484375 C-66.83072294 9.92744987 -53.80590368 1.94686664 -37.921875 -1.46484375 C-25.38359741 -3.17574418 -12.36693131 -2.57511937 0 0 Z " fill="#010101" transform="translate(184,120)"/>
<path d="M0 0 C18.13132735 15.91518248 18.13132735 15.91518248 19.03710938 26.01293945 C20.06368312 48.12584391 16.8527826 69.56053804 9.49804688 90.43310547 C8.74299488 92.59882856 8.03092135 94.77633893 7.3203125 96.95703125 C1.37832268 114.89720003 -6.28557434 132.16607574 -15.0078125 148.921875 C-15.43932617 149.75130615 -15.87083984 150.5807373 -16.31542969 151.43530273 C-19.24112717 156.92855197 -22.26561715 162.57508184 -26.1953125 167.421875 C-26.8553125 167.421875 -27.5153125 167.421875 -28.1953125 167.421875 C-27.74591264 164.61700003 -27.12503938 162.25759718 -26.00390625 159.63671875 C-19.88593653 145.01285381 -21.03687376 128.07526754 -22.97265625 112.58544922 C-23.39765965 108.45564643 -23.3858654 104.31999753 -23.3828125 100.171875 C-23.38345703 99.24584473 -23.38410156 98.31981445 -23.38476562 97.36572266 C-23.34665454 92.40695121 -23.08205361 87.68967348 -22.1953125 82.796875 C-19.79742412 69.31969214 -19.92372101 56.79761257 -26.1953125 44.421875 C-26.48470703 43.8242334 -26.77410156 43.2265918 -27.07226562 42.61083984 C-33.48979739 29.384048 -41.97164111 17.99567213 -52.1953125 7.421875 C-53.26265625 6.31585938 -53.26265625 6.31585938 -54.3515625 5.1875 C-62.33893546 -2.52633279 -72.27110305 -8.61602028 -82.1953125 -13.578125 C-82.1953125 -14.238125 -82.1953125 -14.898125 -82.1953125 -15.578125 C-55.09303404 -20.75808266 -22.02349473 -18.40005737 0 0 Z " fill="#020202" transform="translate(391.1953125,130.578125)"/>
<path d="M0 0 C6.43117189 4.48107461 8.02506721 10.34663037 9.4375 17.75 C10.41352929 24.72142839 10.97697346 31.72798914 11.4375 38.75 C11.50976807 39.81951904 11.50976807 39.81951904 11.58349609 40.91064453 C12.65484993 59.13270071 5.83970518 74.27298196 -1.1015625 90.72265625 C-2.90276815 95.02715396 -4.44517206 99.22153558 -5.5625 103.75 C-15.24294964 104.27802453 -22.03622406 101.86143691 -29.49609375 95.62109375 C-36.68446182 89.11215556 -43.04514224 79.76806913 -43.69189453 69.74462891 C-43.69302246 68.99616699 -43.69415039 68.24770508 -43.6953125 67.4765625 C-43.69660156 66.6515625 -43.69789063 65.8265625 -43.69921875 64.9765625 C-43.69535156 64.11804688 -43.69148437 63.25953125 -43.6875 62.375 C-43.69136719 61.52421875 -43.69523438 60.6734375 -43.69921875 59.796875 C-43.69792969 58.96929687 -43.69664062 58.14171875 -43.6953125 57.2890625 C-43.69418457 56.53834473 -43.69305664 55.78762695 -43.69189453 55.01416016 C-43.5625 52.75 -43.5625 52.75 -43.04052734 50.50317383 C-42.3807706 46.70333888 -42.6185185 42.99310635 -42.78125 39.16015625 C-42.82798242 37.47207156 -42.87217531 35.78391499 -42.9140625 34.09570312 C-42.98189233 31.44960242 -43.06273653 28.80744759 -43.18652344 26.16333008 C-43.84794229 11.48502447 -43.84794229 11.48502447 -40.76293945 7.32104492 C-38.4048591 5.69847592 -36.25887427 4.69250413 -33.5625 3.75 C-32.38042969 3.20730469 -31.19835937 2.66460937 -29.98046875 2.10546875 C-28.91441406 1.72003906 -27.84835938 1.33460938 -26.75 0.9375 C-25.67105469 0.53917969 -24.59210938 0.14085937 -23.48046875 -0.26953125 C-15.88171715 -2.82279317 -7.19713506 -4.3529982 0 0 Z " fill="#020202" transform="translate(234.5625,201.25)"/>
<path d="M0 0 C0.93779297 0.00322266 1.87558594 0.00644531 2.84179688 0.00976562 C4.30649414 0.02233398 4.30649414 0.02233398 5.80078125 0.03515625 C6.78884766 0.03966797 7.77691406 0.04417969 8.79492188 0.04882812 C11.23443599 0.06061322 13.67382814 0.07706614 16.11328125 0.09765625 C15.97044033 2.1187033 15.82385742 4.13948602 15.67578125 6.16015625 C15.59457031 7.28550781 15.51335937 8.41085938 15.4296875 9.5703125 C15.11328125 13.09765625 15.11328125 13.09765625 14.5859375 16.1640625 C13.87310761 22.09645675 13.96960816 28.00349073 13.98828125 33.97265625 C13.98441406 35.20113281 13.98054688 36.42960937 13.9765625 37.6953125 C13.98280204 43.51680448 14.1361784 49.18810494 14.88183594 54.9609375 C15.32136274 59.0186786 15.29766155 63.08270608 15.30078125 67.16015625 C15.31302734 68.00642578 15.32527344 68.85269531 15.33789062 69.72460938 C15.35315651 76.32456208 14.20465 81.82355001 12.11328125 88.09765625 C9.11328125 87.09765625 9.11328125 87.09765625 7.421875 84.16796875 C6.7887763 82.85736427 6.16583247 81.54182647 5.55078125 80.22265625 C4.84473755 78.75410534 4.13630049 77.28670328 3.42578125 75.8203125 C3.05195313 75.04703613 2.678125 74.27375977 2.29296875 73.47705078 C0.71324245 70.29078992 -0.97480093 67.16828616 -2.66577148 64.04003906 C-11.56634787 47.53579356 -20.39258869 30.40134924 -17.88671875 11.09765625 C-13.84688066 3.79321553 -8.38512414 -0.05081893 0 0 Z " fill="#040404" transform="translate(344.88671875,197.90234375)"/>
<path d="M0 0 C4.08280376 1.28550543 5.30526567 2.26936822 7.3125 6.04296875 C7.95145419 10.00448474 8.23408266 12.38759764 6.27734375 15.90234375 C0.69329385 22.9329581 -7.77942378 28.57661875 -16.6875 30.04296875 C-26.0364799 30.80670744 -34.99625151 30.90574586 -43.6875 27.04296875 C-43.6875 26.38296875 -43.6875 25.72296875 -43.6875 25.04296875 C-43.09324219 24.88739502 -42.49898437 24.73182129 -41.88671875 24.5715332 C-39.14979238 23.84659888 -36.4188284 23.10120528 -33.6875 22.35546875 C-32.28564453 21.98905273 -32.28564453 21.98905273 -30.85546875 21.61523438 C-19.83471598 18.57104043 -14.03806602 14.13700764 -7.82226562 4.6875 C-5.30473307 1.16517905 -4.44907957 0.05184309 0 0 Z " fill="#050505" transform="translate(242.6875,317.95703125)"/>
<path d="M0 0 C1.69514137 0.95093297 3.36368108 1.95107762 5 3 C8.59614227 3.92244049 11.97231105 4.12850721 15.67578125 4.1328125 C16.75150391 4.13410156 17.82722656 4.13539063 18.93554688 4.13671875 C20.04994141 4.13285156 21.16433594 4.12898438 22.3125 4.125 C23.41529297 4.12886719 24.51808594 4.13273437 25.65429688 4.13671875 C31.53193745 4.12970067 37.18889998 3.89183752 43 3 C32.87915273 14.1231534 17.21424719 16.53628473 2.91796875 17.2421875 C-2.60136573 17.34621684 -6.93231122 17.35118278 -12 15 C-12.6271777 7.00348432 -12.6271777 7.00348432 -10.125 3 C-6.73604791 -0.18960196 -4.60653411 -0.36129679 0 0 Z " fill="#0A0A0A" transform="translate(365,317)"/>
<path d="M0 0 C5.00936665 0.07259952 7.45846937 1.1821321 11.25 4.375 C10.93306247 7.30667219 10.61774166 8.96482661 8.625 11.1875 C5.21784531 12.89107735 3.01792609 12.89471394 -0.75 12.375 C-3.39188447 10.9702343 -4.66568424 9.66266364 -6.75 7.375 C-7.25 4.6875 -7.25 4.6875 -6.75 2.375 C-4.28003576 -0.09496424 -3.41102667 0.05168222 0 0 Z " fill="#F8F8F8" transform="translate(225.75,204.625)"/>
<path d="M0 0 C1.08667969 0.01804688 2.17335938 0.03609375 3.29296875 0.0546875 C4.54013672 0.08949219 4.54013672 0.08949219 5.8125 0.125 C6.1425 1.775 6.4725 3.425 6.8125 5.125 C1.74170354 9.95432996 1.74170354 9.95432996 -2.25 10.6875 C-5.82472388 10.00297841 -7.56482418 8.59340077 -10.1875 6.125 C-9.875 4.25 -9.875 4.25 -9.1875 2.125 C-5.66070901 -0.22619399 -4.15870515 -0.08943452 0 0 Z " fill="#F4F4F4" transform="translate(344.1875,202.875)"/>
</svg>
